// create-icon.svg
<svg xmlns="http://www.w3.org/2000/svg" viewBox="0 0 24 24" width="24" height="24">
  <path d="M0 0h24v24H0z" fill="none"/>
  <path d="M12 2C6.48 2 2 6.48 2 12s4.48 10 10 10 10-4.48 10-10S17.52 2 12 2zm1 17.93c-3.95.49-7.43-2.48-7.93-6.43-.16-1.22.14-2.39.76-3.36l4.22 4.22c.12.12.27.22.42.28.44.15.91-.05 1.06-.5.14-.44-.05-.91-.5-1.06-.15-.05-.3-.15-.42-.28l-4.22-4.22c.97-.62 2.14-.92 3.36-.76 3.95.49 7.43 2.48 7.93 6.43.16 1.22-.14 2.39-.76 3.36l-4.22-4.22c-.12-.12-.27-.22-.42-.28-.44-.15-.91.05-1.06.5-.14.44.05.91.5 1.06.15.05.3.15.42.28l4.22 4.22c-.97.62-2.14.92-3.36.76z"/>
</svg>